<svg width="97" height="100" viewBox="0 0 97 100" fill="none" xmlns="http://www.w3.org/2000/svg">
<path fill-rule="evenodd" clip-rule="evenodd" d="M25.3311 0.253357C24.9873 0.390633 24.4422 0.749201 24.1194 1.05026C22.9314 2.15947 22.8304 2.66281 22.8304 7.47147V11.9946L17.2668 11.9618C12.6879 11.9348 11.46 12.0036 10.328 12.3511C5.51183 13.8292 1.81338 17.5444 0.482878 22.2398C0.0525465 23.7593 -0.0542231 25.2528 0.0232916 28.6655C0.06755 30.6014 0.157567 31.0599 0.576146 31.4785C1.07274 31.9751 1.40955 31.9786 48.0852 31.9786C94.7608 31.9786 95.0976 31.9751 95.5942 31.4785C96.0137 31.0589 96.1018 30.6061 96.1413 28.6655C96.2395 23.8271 95.955 22.1725 94.545 19.3795C93.6463 17.5986 91.4726 15.2287 89.675 14.069C88.9637 13.6101 87.5009 12.936 86.4244 12.5712C84.5181 11.9248 84.3223 11.9088 78.9035 11.9511L73.3399 11.9946V7.39571C73.3399 3.03838 73.3104 2.75358 72.7773 1.97043C71.4706 0.0503185 69.3087 -0.539294 67.4778 0.524908C65.67 1.57561 65.4749 2.21623 65.3812 7.41146L65.2987 11.9748H48.0852H30.8716L30.7891 7.41146C30.7119 3.13165 30.6704 2.78934 30.119 1.90267C29.1281 0.308617 27.0167 -0.418771 25.3311 0.253357ZM0.576146 40.4802C0.0843028 40.9721 0.0753014 41.3496 0.0232916 63.2971C-0.00571393 75.5711 -0.000963077 86.2326 0.0337935 86.989C0.293843 92.6511 4.58641 97.9099 10.325 99.5964C11.56 99.9595 15.3397 100 48.0852 100C80.9849 100 84.6046 99.9607 85.8453 99.5924C91.6214 97.8779 95.8747 92.6641 96.127 86.989C96.1605 86.2326 96.167 75.5711 96.1413 63.2971C96.095 41.3459 96.086 40.9721 95.5942 40.4802C95.0976 39.9836 94.7608 39.9801 48.0852 39.9801C1.40955 39.9801 1.07274 39.9836 0.576146 40.4802ZM49.5124 51.2948C49.7952 51.6043 50.993 53.7787 52.1742 56.1272C53.7527 59.2658 54.4856 60.4718 54.9412 60.6793C55.282 60.8346 57.7327 61.2637 60.387 61.6327C63.0415 62.0018 65.4717 62.4629 65.7873 62.6572C67.177 63.5133 66.9257 65.2119 65.1881 66.7065C64.652 67.1678 63.0037 68.7311 61.5252 70.1806C59.249 72.4123 58.8377 72.9344 58.8412 73.5888C58.8432 74.0138 59.1808 76.2182 59.5911 78.4874C60.4938 83.4799 60.4995 83.7404 59.7244 84.5771C58.7204 85.66 57.9678 85.478 53.1569 82.9883C50.7652 81.7505 48.532 80.7379 48.1942 80.7379C47.8561 80.7379 45.5567 81.7505 43.0842 82.9883C40.3629 84.3505 38.287 85.2387 37.8245 85.2387C36.8448 85.2387 35.8328 84.2598 35.8331 83.3121C35.8331 82.9278 36.1706 80.7003 36.583 78.3624C36.9953 76.0245 37.3329 73.8115 37.3329 73.4445C37.3331 72.9104 36.563 72.0395 33.4629 69.0686C29.1443 64.9301 28.8088 64.3705 29.89 63.1133C30.4673 62.4421 30.7244 62.3776 35.6018 61.6802C38.4458 61.2737 40.9591 60.7881 41.2736 60.5848C41.6024 60.372 42.7224 58.4541 43.9551 55.9917C45.1193 53.6665 46.3208 51.5318 46.6254 51.248C47.393 50.5329 48.8373 50.5564 49.5124 51.2948Z" fill="black"/>
</svg>
