<svg width="81" height="100" viewBox="0 0 81 100" fill="none" xmlns="http://www.w3.org/2000/svg">
<path fill-rule="evenodd" clip-rule="evenodd" d="M24.2622 0.767516C23.5257 1.50377 23.4947 1.69979 23.4947 5.61333V9.69164H40.0643H56.6339V5.6124C56.6339 1.60287 56.6198 1.52034 55.8066 0.766578L54.9794 0H40.0046H25.0294L24.2622 0.767516ZM3.4646 16.0425C2.70272 16.4448 1.65727 17.3724 1.14142 18.1043C0.223846 19.4055 0.201337 19.529 0.101607 23.7858L0 28.137H40.0405H80.0814L80.0726 24.1509C80.0648 20.6197 79.9819 20.0045 79.3454 18.758C78.9359 17.9561 78.0546 16.9479 77.2952 16.4133L75.9634 15.4754L40.4066 15.3934L4.84988 15.3112L3.4646 16.0425ZM6.73913 37.4378C6.94265 40.969 7.49695 49.211 8.17443 58.7751C8.47799 63.0647 8.99165 70.6158 9.76948 82.2226C10.8334 98.1 10.8396 98.1347 12.9602 99.4343C13.9344 100.031 14.6219 100.044 40.2784 99.9664L66.5972 99.8864L67.5329 98.99C68.0475 98.4967 68.6102 97.7229 68.7834 97.2706C68.9569 96.8179 69.3912 92.2972 69.7491 87.2247C70.4601 77.1401 71.1619 67.4457 71.6387 61.1198C72.3934 51.1084 73.5161 35.1981 73.5161 34.5153V33.7644H40.0218H6.52747L6.73913 37.4378ZM32.1175 43.9913C32.3507 44.2989 32.622 44.9723 32.7208 45.4882C32.8196 46.004 32.8593 55.3833 32.809 66.3314L32.7174 86.2368L31.9596 87.0434C30.8954 88.1758 29.0727 88.1664 28.0129 87.0228L27.2463 86.1955V65.4933C27.2463 45.1962 27.2588 44.775 27.8778 43.9881C28.2252 43.5464 28.8229 43.135 29.2065 43.0737C30.2301 42.9099 31.6322 43.3519 32.1175 43.9913ZM51.1478 43.2731C51.7302 43.5167 52.3586 43.9997 52.5446 44.347C53.0398 45.2728 53.0151 85.453 52.5187 86.3856C51.9631 87.4286 51.2744 87.829 50.0182 87.84C49.1172 87.8478 48.7014 87.6452 48.0643 86.888L47.2549 85.9263V65.6436C47.2549 50.2974 47.348 45.1565 47.6381 44.5202C47.8489 44.0576 48.4466 43.4939 48.9668 43.2672C50.142 42.7551 49.906 42.7545 51.1478 43.2731Z" fill="black"/>
</svg>
