<svg width="101" height="101" viewBox="0 0 101 101" fill="none" xmlns="http://www.w3.org/2000/svg">
<path fill-rule="evenodd" clip-rule="evenodd" d="M87.7094 0.393171C87.317 0.550779 85.6987 1.94329 84.1132 3.48746L81.2307 6.29531L87.5593 12.6362L93.888 18.9767L96.1177 16.7924C99.0828 13.8873 100.15 12.2134 100.15 10.4663C100.15 9.71732 99.9487 8.72477 99.7026 8.26008C99.1707 7.25565 92.7854 0.911337 91.8054 0.413811C90.9936 0.00165581 88.7132 -0.00991517 87.7094 0.393171ZM58.5412 29.083L39.9526 47.7557L37.8274 54.3227C36.6585 57.9345 35.7088 61.3534 35.7166 61.92C35.7357 63.2972 36.9209 64.4814 38.2968 64.4989C38.8634 64.5058 42.2823 63.5602 45.8941 62.3975L52.4611 60.283L71.1623 41.6553L89.8634 23.0276L83.8972 17.0514C80.6156 13.7641 77.7505 10.9253 77.5303 10.7424C77.2245 10.4888 72.733 14.827 58.5412 29.083ZM8.33205 16.3121C5.14738 17.0723 1.88642 19.9718 0.725002 23.0752C0.0776869 24.8057 0.0739344 25.0302 0.155865 58.4889L0.238109 92.1609L1.04929 93.8808C2.08405 96.0742 4.14264 98.1328 6.336 99.1675L8.05592 99.9787L41.7279 100.061C75.1866 100.143 75.4111 100.139 77.1416 99.4918C79.4432 98.6306 82.0437 96.2361 83.1714 93.9402L84.0451 92.1609L84.1314 64.564C84.1789 49.3859 84.1079 36.9671 83.9738 36.9671C83.8396 36.9671 77.5385 43.1682 69.9718 50.7474C62.4047 58.3269 55.7211 64.7829 55.1192 65.0947C54.5172 65.4064 50.9288 66.6939 47.145 67.956C41.4702 69.8485 39.9363 70.245 38.3872 70.22C33.7509 70.145 30.0606 66.4553 29.9933 61.8278C29.9705 60.2798 30.3992 58.6387 32.4431 52.4464L34.9204 44.9413L49.0851 30.705C56.8757 22.8753 63.2497 16.3668 63.2497 16.2421C63.2497 15.9428 9.59322 16.011 8.33205 16.3121Z" fill="black"/>
</svg>
