<svg width="100" height="100" viewBox="0 0 100 100" fill="none" xmlns="http://www.w3.org/2000/svg">
<path fill-rule="evenodd" clip-rule="evenodd" d="M46.9618 0.317494C46.4458 0.528293 45.6013 0.937381 45.0853 1.22637C43.4636 2.13462 1.30606 44.6528 0.642705 46.0493C-0.284622 48.0006 -0.19361 52.1437 0.819725 54.1278C2.2997 57.0252 5.1067 58.8642 8.60677 59.2301L10.4996 59.4278L10.5906 75.7262L10.6819 92.0247L11.6061 93.8502C12.7868 96.1825 15.3035 98.5025 17.5754 99.3523C19.1883 99.9559 19.9624 100 28.9473 100H38.5884L39.3972 99.1912L40.206 98.3824L40.3001 85.3517C40.3892 72.9758 40.4255 72.2674 41.0194 71.2591C42.3552 68.9913 42.7046 68.8906 49.564 68.7933C56.4888 68.6948 57.2647 68.874 58.6058 70.8816C59.3139 71.9412 59.3158 71.9785 59.3158 84.2129C59.3158 90.9607 59.4033 96.9193 59.5103 97.4545C59.6173 97.9896 60.0589 98.7812 60.4914 99.2137L61.2777 100H70.9188C79.9037 100 80.6778 99.9559 82.2907 99.3523C84.5625 98.5025 87.0793 96.1825 88.26 93.8502L89.1841 92.0247L89.2755 75.7262L89.3665 59.4278L91.2593 59.2301C94.7594 58.8642 97.5664 57.0252 99.0463 54.1278C100.142 51.9826 100.158 47.9649 99.0786 45.8541C98.0693 43.8803 55.6568 1.52537 53.8425 0.679356C52.3225 -0.0290411 48.3248 -0.239528 46.9618 0.317494Z" fill="black"/>
</svg>
