<svg width="104" height="100" viewBox="0 0 104 100" fill="none" xmlns="http://www.w3.org/2000/svg">
<path fill-rule="evenodd" clip-rule="evenodd" d="M98.1301 0.319796C99.7425 0.836047 100.859 1.59983 101.909 2.90413C102.752 3.95234 103.183 4.85843 103.414 6.06877C103.557 6.81888 103.595 17.346 103.558 45.7827L103.508 84.4759L102.957 85.6379C102.293 87.0406 100.727 88.6819 99.5851 89.1715C99.1506 89.3577 96.2437 90.3569 93.1249 91.392C90.0062 92.4269 82.9205 94.7864 77.3788 96.6351C67.4708 99.9407 67.2787 99.9967 65.8514 100C63.6442 100.005 62.0371 99.3329 60.413 97.7254C59.4853 96.8071 58.6236 95.2001 58.3375 93.8552C58.2159 93.2837 58.1739 80.7407 58.2055 54.4096L58.2518 15.8019L58.6365 14.8975C59.3705 13.1717 60.3786 12.0039 61.8381 11.1884C62.4792 10.83 68.425 8.76516 77.7203 5.67261C85.892 2.95401 93.1096 0.565451 93.7594 0.364724C95.1992 -0.0797777 96.8299 -0.0965192 98.1301 0.319796ZM71.9993 0.141448C71.9993 0.219347 69.4824 1.11775 66.4064 2.13829C63.3303 3.15866 60.1843 4.27931 59.4151 4.62866C55.5106 6.4024 52.666 9.95397 51.5607 14.4352C51.2865 15.5468 51.2621 18.3507 51.2122 54.2815L51.1587 92.932L41.2139 92.93C30.6368 92.9279 30.4252 92.9134 28.8056 92.0852C27.6563 91.4975 26.2967 90.0337 25.6691 88.708L25.1211 87.5508L25.0743 70.6813L25.0277 53.8117H17.7789H10.5301L12.1308 56.1779C14.1299 59.1329 14.4475 59.7532 14.4475 60.7019C14.4475 62.8827 12.6301 64.5491 10.4659 64.3528C8.76237 64.1984 8.5716 63.9886 4.22824 57.4925C-0.0867808 51.0386 -0.282313 50.6377 0.164439 49.1592C0.315918 48.6578 1.87664 46.1498 4.26991 42.5613C8.74631 35.8501 8.79549 35.7992 10.8031 35.7928C11.8918 35.7894 12.1072 35.846 12.7671 36.3079C14.2726 37.3619 14.8579 39.3543 14.099 40.8422C13.9074 41.2181 13.0198 42.6179 12.1267 43.9531L10.5029 46.3806L17.5557 46.4252C21.4347 46.4498 24.7032 46.4335 24.8188 46.3891C24.9833 46.3261 25.0389 41.8544 25.075 25.8448L25.1211 5.38117L25.5953 4.36815C26.5365 2.35798 27.875 1.15413 29.9915 0.414436L31.1772 0H51.5882C62.8144 0 71.9993 0.0637204 71.9993 0.141448ZM69.8771 47.0292C69.5029 47.2363 68.9661 47.7341 68.6844 48.1355C68.2354 48.7751 68.1719 49.0112 68.1719 50.0403C68.1719 51.0567 68.2383 51.3106 68.6647 51.9261C69.3793 52.9576 70.3443 53.4701 71.5724 53.4701C73.2837 53.4701 74.5383 52.4558 74.9307 50.7549C75.6065 47.8263 72.533 45.5604 69.8771 47.0292Z" fill="black"/>
</svg>
