<svg width="75" height="100" viewBox="0 0 75 100" fill="none" xmlns="http://www.w3.org/2000/svg">
<path fill-rule="evenodd" clip-rule="evenodd" d="M34.0954 0.277093C29.8912 1.04004 26.1148 3.07442 23.1585 6.16872C15.6766 13.9999 15.7249 26.1116 23.2689 33.9055C26.803 37.5566 31.4632 39.6525 36.6291 39.9138C46.1023 40.3933 54.4084 34.2293 56.9965 24.7987C57.6261 22.5051 57.6261 17.4451 56.9965 15.1515C54.845 7.31178 48.7225 1.63293 40.9628 0.279803C38.8288 -0.0921881 36.1373 -0.0934386 34.0954 0.277093ZM32.878 46.9745C20.3772 48.6628 9.82893 56.3375 4.39474 67.6983C2.75673 71.1225 1.55324 75.4263 1.10164 79.4728C0.764656 82.4916 0.82905 90.9299 1.19979 92.3532C2.14112 95.9671 4.9097 98.7446 8.50415 99.6809C9.57448 99.9598 13.2425 100 37.5669 100C61.8914 100 65.5594 99.9598 66.6297 99.6809C70.2242 98.7446 72.9928 95.9671 73.9341 92.3532C74.3075 90.9201 74.3686 82.4587 74.0272 79.4728C73.2353 72.5475 70.5014 65.8194 66.3632 60.6127C65.019 58.9214 61.8776 55.7998 60.1781 54.4663C52.4783 48.425 42.4714 45.6787 32.878 46.9745Z" fill="black"/>
</svg>
