<svg width="81" height="100" viewBox="0 0 81 100" fill="none" xmlns="http://www.w3.org/2000/svg">
<path fill-rule="evenodd" clip-rule="evenodd" d="M37.7644 0.400739C37.2024 0.62099 35.7719 1.52061 34.5855 2.39935C26.6535 8.27529 18.0623 11.7214 8.08902 13.028C6.53387 13.2316 5.1238 13.5597 4.45601 13.8735C3.06706 14.5259 1.69378 15.8969 0.974674 17.349L0.412465 18.4843L0.34253 38.1253C0.26987 58.61 0.341395 60.7439 1.24057 64.9026C3.24417 74.167 8.61626 82.5293 16.1934 88.1782C19.2047 90.4234 20.8566 91.3448 30.1282 95.9524L38.2728 100H40.2807H42.2888L51.2326 95.5298C60.5699 90.863 63.4434 89.1486 66.715 86.2931C72.9042 80.8906 77.5275 73.0222 79.2836 64.9026C80.1828 60.7439 80.2543 58.61 80.1816 38.1253L80.1117 18.4843L79.5495 17.349C78.8301 15.8962 77.4571 14.5259 76.0663 13.8726C75.3829 13.5516 73.9783 13.2294 72.3198 13.0132C62.3642 11.7151 53.021 7.87089 45.1787 1.84645C44.4487 1.2856 43.349 0.635749 42.7355 0.402555C41.3245 -0.133541 39.1284 -0.134222 37.7644 0.400739ZM56.3913 37.2738C58.1156 38.1441 58.8488 40.0825 58.1165 41.8352C57.7814 42.6375 39.2673 61.6481 38.3563 62.1254C37.3831 62.6351 36.1245 62.6871 35.2067 62.2555C34.1393 61.7532 22.8393 50.1344 22.4031 49.0904C21.9753 48.0665 22.0214 47.1111 22.5482 46.0784C23.3411 44.5241 24.97 43.8116 26.695 44.2648C27.5241 44.4828 28.2931 45.1644 32.1475 49.0988L36.6352 53.6791L44.663 45.545C53.9336 36.1521 54.0317 36.0828 56.3913 37.2738Z" fill="black"/>
</svg>
