<svg width="115" height="100" viewBox="0 0 115 100" fill="none" xmlns="http://www.w3.org/2000/svg">
<path fill-rule="evenodd" clip-rule="evenodd" d="M14.7744 0.293616C12.8975 0.762181 11.4925 1.56232 10.0772 2.96891C6.12167 6.90022 6.12434 13.0503 10.0835 16.9998C12.5812 19.4917 16.0851 20.522 19.264 19.6994L20.3958 19.4065L25.3869 25.6239C28.1321 29.0435 30.5161 32.06 30.6846 32.3268C30.9624 32.7667 30.9178 32.9148 30.2092 33.9078C29.139 35.4073 28.3994 36.9311 27.7859 38.9005C27.1154 41.0534 27.0543 45.1228 27.6593 47.3456C28.1611 49.1894 29.1642 51.3363 30.1891 52.7595C30.8966 53.7418 30.9584 53.9295 30.7067 54.3316C30.4711 54.7076 25.4808 61.0067 24.8981 61.6634C24.8002 61.7737 24.0568 61.5935 23.2042 61.2529C20.1608 60.0373 16.9328 59.7351 13.8177 60.3738C7.52511 61.664 2.76508 66.0134 0.811487 72.2582C0.0658507 74.6415 0.0654048 78.7534 0.810372 81.1481C2.26152 85.8128 5.38227 89.5048 9.62894 91.5817C11.9416 92.7127 13.5898 93.1433 16.2316 93.307C20.9874 93.6016 25.502 91.8583 28.9116 88.4109C31.0995 86.1991 32.5072 83.7816 33.3223 80.8365C33.92 78.6774 33.8562 74.3704 33.1955 72.2582C32.5783 70.2855 31.8382 68.7621 30.7693 67.2646C30.0812 66.3003 30.0213 66.1131 30.2725 65.7114C30.5081 65.3354 35.4984 59.0363 36.0811 58.3796C36.1789 58.2693 36.8842 58.4343 37.6896 58.7561C40.9874 60.0731 44.8754 60.3375 47.869 59.4482C48.5391 59.2492 49.1189 59.1716 49.1577 59.2759C49.1963 59.3802 52.3279 64.8695 56.117 71.4743L63.006 83.4831L62.5584 84.1503C59.6595 88.4701 60.062 93.5467 63.582 97.0584C69.342 102.805 79.0797 99.6747 80.4622 91.6324C81.0041 88.4797 79.9863 85.3687 77.645 83.0223C75.5838 80.9566 72.6271 79.8293 69.9446 80.0864L68.8256 80.1936L61.9176 68.1343C58.1183 61.5017 55.0098 55.981 55.0098 55.866C55.0098 55.7511 55.321 55.363 55.7012 55.0038C57.3766 53.4211 59.3579 50.0384 59.9426 47.7621L60.221 46.6784L70.7114 46.6838L81.2018 46.6891L81.8304 48.6539C82.9215 52.0641 85.534 55.4017 88.6871 57.414C94.0595 60.8426 101.048 60.8452 106.491 57.4212C109.053 55.8091 111.711 52.7193 112.937 49.9279C114.198 47.0567 114.605 43.2919 113.985 40.2364C111.836 29.66 100.732 23.852 90.7983 28.1086C86.8305 29.8088 83.163 33.8668 81.8304 38.0314L81.2018 39.9962L70.7114 40.0015L60.221 40.0069L59.9426 38.9232C59.5714 37.4781 58.511 35.2752 57.5329 33.9169C56.8113 32.9148 56.7659 32.7671 57.0438 32.3268C57.2124 32.06 59.5964 29.0435 62.3415 25.6239L67.3327 19.4065L68.4644 19.6994C72.6148 20.7735 77.3156 18.6181 79.383 14.6928C81.4971 10.6792 80.8264 6.15212 77.645 2.96379C73.7075 -0.982428 67.553 -0.979759 63.5758 2.97002C60.4867 6.03782 59.7179 10.5725 61.6483 14.3392L62.1133 15.2463L56.8691 21.7891C53.9851 25.3875 51.5885 28.369 51.5437 28.4148C51.4989 28.4604 50.7809 28.2256 49.9481 27.8931C45.9665 26.3029 41.762 26.3029 37.7803 27.8931C36.9475 28.2256 36.2295 28.4604 36.1847 28.4148C36.1399 28.369 33.7479 25.3929 30.8688 21.8009L25.6342 15.2699L26.1894 14.0601C27.9344 10.2578 27.1446 5.96865 24.1464 2.96379C21.6327 0.444393 18.1479 -0.548333 14.7744 0.293616Z" fill="#010068"/>
</svg>
