<svg width="100" height="100" viewBox="0 0 100 100" fill="none" xmlns="http://www.w3.org/2000/svg">
<path fill-rule="evenodd" clip-rule="evenodd" d="M45.3077 0.11733C35.58 1.05848 25.9378 5.01386 18.3771 11.1648C16.1532 12.9741 12.632 16.5233 10.8583 18.7439C6.37341 24.3583 2.69823 31.9527 1.17399 38.7546C0.216797 43.0272 0 45.1041 0 50.0054C0 54.9066 0.216797 56.9836 1.17399 61.2561C2.7219 68.1635 6.64128 76.1735 11.131 81.6053C15.8424 87.3051 21.4099 91.7093 27.9647 94.9223C32.9591 97.3703 37.432 98.7607 43.1288 99.6365C46.2809 100.121 53.6732 100.121 56.8253 99.6365C66.1427 98.2042 74.6143 94.5108 81.577 88.8457C87.1112 84.3429 91.6837 78.5647 94.8934 72.0177C97.3416 67.0245 98.7324 62.5514 99.6082 56.8537C100.093 53.7015 100.093 46.3092 99.6082 43.1571C98.7324 37.4603 97.342 32.9874 94.894 27.993C92.2817 22.6635 89.3698 18.6089 85.1659 14.4477C81.0386 10.3622 77.2577 7.67745 71.9894 5.09115C67.0545 2.66842 62.4859 1.23967 57.021 0.40985C54.5635 0.0367162 47.8684 -0.130578 45.3077 0.11733ZM79.8569 20.3131C79.2852 21.729 61.04 60.7282 60.8699 60.8983C60.6011 61.1669 20.2034 79.9749 20.1054 79.877C19.9704 79.742 38.8552 39.3318 39.1761 39.069C39.5084 38.7971 79.4703 20.1173 79.7881 20.0854C79.8802 20.0762 79.9113 20.1787 79.8569 20.3131ZM48.0257 44.8666C46.8192 45.2924 45.2478 46.8972 44.8264 48.1342C44.1073 50.2445 44.5749 52.2596 46.1489 53.8336C48.3736 56.0583 51.5805 56.0583 53.8052 53.8336C56.03 51.6088 56.03 48.4019 53.8052 46.1772C52.2389 44.6109 50.1148 44.1291 48.0257 44.8666Z" fill="#010068"/>
</svg>
