<svg width="20" height="20" viewBox="0 0 20 20" fill="none" xmlns="http://www.w3.org/2000/svg">
<path fill-rule="evenodd" clip-rule="evenodd" d="M3.16768 0.0599093C2.34539 0.242548 1.73839 0.579816 1.13143 1.19119C0.627197 1.69908 0.426388 2.02147 0.181233 2.71642C0.061405 3.05606 0.000182904 3.4136 0.000182904 3.77376V7.93133C0.000182904 13.2155 -0.0206824 12.8986 0.3833 13.7498C0.766416 14.557 1.45598 15.2314 2.30401 15.6283C2.70498 15.8159 3.33833 15.9771 3.67483 15.9771C3.82153 15.9771 3.94086 16.0952 3.9423 16.2419L3.95589 17.6239C3.97203 19.2612 3.97283 19.2721 4.0941 19.4838C4.25776 19.7696 4.54002 19.9586 4.84701 19.9881C5.33546 20.0351 5.32289 20.045 7.44129 17.9339C8.69753 16.6819 10.3969 15.976 12.1704 15.9693L13.0975 15.9658L16.3647 15.9535C16.6483 15.9525 16.9299 15.9055 17.1985 15.8144C18.3242 15.4326 19.2575 14.561 19.6856 13.4918C19.9898 12.732 19.9838 12.8413 19.9847 8.02858C19.9853 5.16811 19.9671 3.52064 19.9328 3.32684C19.6687 1.83651 18.6754 0.683154 17.2203 0.177327C16.9041 0.0674025 16.5718 0.0110458 16.237 0.0105816L10.106 0.00208045C4.73494 -0.00536187 3.41183 0.00565076 3.16768 0.0599093ZM6.14076 6.61449C6.39406 6.74372 6.72398 7.07224 6.84495 7.31567C6.91639 7.45939 6.93852 7.61679 6.93852 7.98161C6.93852 8.53219 6.86426 8.73475 6.54539 9.05366C5.7854 9.81378 4.5192 9.57115 4.07454 8.58016C3.95227 8.30766 3.93764 8.22329 3.95785 7.90799C3.99737 7.29174 4.39371 6.74513 4.93801 6.55621C5.26065 6.44422 5.86443 6.47348 6.14076 6.61449ZM10.4824 6.55294C10.8353 6.65773 11.2727 7.08657 11.4012 7.45361C11.8782 8.81686 10.3991 10.0257 9.17879 9.26984C8.70804 8.97828 8.47284 8.54582 8.47229 7.97095C8.47184 7.52838 8.62609 7.1798 8.95576 6.87849C9.38031 6.49038 9.89932 6.37975 10.4824 6.55294ZM15.0149 6.55902C15.3778 6.67468 15.7616 7.06108 15.9136 7.46382C16.1334 8.04598 15.9627 8.70779 15.4841 9.12909C14.7444 9.78034 13.5495 9.53756 13.1142 8.64765C12.9244 8.25959 12.918 7.72948 13.0986 7.35515C13.4485 6.63028 14.2256 6.30739 15.0149 6.55902Z" fill="#808080"/>
</svg>
