<svg width="25" height="20" viewBox="0 0 25 20" fill="none" xmlns="http://www.w3.org/2000/svg">
<path fill-rule="evenodd" clip-rule="evenodd" d="M5.4026 0.0748081C4.96914 0.146527 4.16127 0.405736 3.67086 0.6304C2.57052 1.13456 1.33414 2.34295 0.762178 3.4733C0.19148 4.60123 0.000607897 5.44587 1.9533e-06 6.84605C-0.000503 7.89189 0.0967509 8.42917 0.458802 9.38043C0.807119 10.2958 1.48976 11.5021 2.07723 12.2405C2.15469 12.3378 2.35329 12.5893 2.51861 12.7993C3.43707 13.966 5.11523 15.5925 6.73113 16.8824C7.26133 17.3056 8.4408 18.1919 8.76523 18.4109C8.90939 18.5083 9.33093 18.7942 9.70187 19.0465C10.9837 19.9178 11.2074 20.006 12.1185 19.9997C13.0497 19.9933 13.2541 19.9041 14.8532 18.8065C15.6373 18.2683 15.8708 18.1 16.6844 17.4861C20.7036 14.4533 23.3212 11.2484 24.0145 8.51101C24.3393 7.22817 24.2775 5.6979 23.8509 4.45875C23.0216 2.05051 20.9853 0.354956 18.5544 0.0484573C17.548 -0.0783906 16.474 0.045625 15.5183 0.39906C14.2854 0.854964 13.438 1.48005 12.2622 2.80103V2.80103C12.1702 2.9044 12.008 2.90269 11.9182 2.79741L11.8134 2.67459C11.0593 1.79075 10.2846 1.15934 9.40495 0.711577C9.01624 0.513718 8.19908 0.21774 7.77744 0.122047C7.30087 0.0138624 5.93502 -0.0132976 5.4026 0.0748081Z" fill="#808080"/>
</svg>
