<svg width="20" height="20" viewBox="0 0 20 20" fill="none" xmlns="http://www.w3.org/2000/svg">
<path fill-rule="evenodd" clip-rule="evenodd" d="M0.48516 0.0283676C0.444361 0.041771 0.410959 0.0608829 0.410959 0.0708384C0.410959 0.0807939 0.39532 0.0889456 0.37621 0.0889456C0.331005 0.0889456 0.0913242 0.328654 0.0913242 0.373865C0.0913242 0.392977 0.0835616 0.408618 0.074041 0.408618C0.00605014 0.408618 0 0.608779 0 2.86325C0 5.11772 0.00605014 5.31788 0.074041 5.31788C0.0835616 5.31788 0.0913242 5.33352 0.0913242 5.35263C0.0913242 5.39785 0.331005 5.63755 0.37621 5.63755C0.39532 5.63755 0.410959 5.64532 0.410959 5.65484C0.410959 5.72585 0.585023 5.72889 4.64612 5.72889C8.70722 5.72889 8.88128 5.72585 8.88128 5.65484C8.88128 5.64532 8.89692 5.63755 8.91603 5.63755C8.96123 5.63755 9.20091 5.39785 9.20091 5.35263C9.20091 5.33352 9.21119 5.31788 9.22374 5.31788C9.2363 5.31788 9.24658 5.29733 9.24658 5.27221C9.24658 5.2471 9.25685 5.22655 9.26941 5.22655C9.28448 5.22655 9.29224 4.42355 9.29224 2.86325C9.29224 1.30295 9.28448 0.499954 9.26941 0.499954C9.25685 0.499954 9.24658 0.479403 9.24658 0.454286C9.24658 0.429169 9.2363 0.408618 9.22374 0.408618C9.21119 0.408618 9.20091 0.392977 9.20091 0.373865C9.20091 0.328654 8.96123 0.0889456 8.91603 0.0889456C8.89692 0.0889456 8.88128 0.081182 8.88128 0.0716603C8.88128 0.000441748 8.71032 -0.00238958 4.62936 0.000829983C1.81751 0.00304486 0.536416 0.0115619 0.48516 0.0283676ZM11.1929 0.0283676C11.1521 0.041771 11.1187 0.0608829 11.1187 0.0708384C11.1187 0.0807939 11.1031 0.0889456 11.084 0.0889456C11.0388 0.0889456 10.7991 0.328654 10.7991 0.373865C10.7991 0.392977 10.7888 0.408618 10.7763 0.408618C10.7637 0.408618 10.7534 0.429169 10.7534 0.454286C10.7534 0.479403 10.7432 0.499954 10.7306 0.499954C10.7154 0.499954 10.7078 2.49031 10.7078 6.42532C10.7078 10.3603 10.7154 12.3507 10.7306 12.3507C10.7432 12.3507 10.7534 12.364 10.7534 12.3804C10.7534 12.4224 10.8071 12.533 10.8276 12.5332C10.8371 12.5333 10.8447 12.5446 10.8447 12.5584C10.8447 12.6152 11.1001 12.8074 11.1755 12.8074C11.1945 12.8074 11.21 12.8176 11.21 12.8302C11.21 12.8453 12.6066 12.853 15.3539 12.853C18.1012 12.853 19.4977 12.8453 19.4977 12.8302C19.4977 12.8176 19.5183 12.8074 19.5434 12.8074C19.5685 12.8074 19.589 12.7971 19.589 12.7845C19.589 12.772 19.607 12.7615 19.629 12.7612C19.6757 12.7606 19.8868 12.5482 19.9235 12.4649C19.9373 12.4335 19.9602 12.379 19.9743 12.3439C19.9931 12.2972 20 10.7101 20 6.4353C20 0.553774 19.9982 0.408618 19.926 0.408618C19.9164 0.408618 19.9087 0.392977 19.9087 0.373865C19.9087 0.328654 19.669 0.0889456 19.6238 0.0889456C19.6047 0.0889456 19.589 0.081182 19.589 0.0716603C19.589 0.000441748 19.4181 -0.00238958 15.3371 0.000829983C12.5253 0.00304486 11.2442 0.0115619 11.1929 0.0283676ZM0.502283 7.16456C0.502283 7.17555 0.474041 7.19034 0.439498 7.19742C0.322055 7.22153 0.141324 7.39199 0.0715298 7.54449C0.0543836 7.58199 0.0312557 7.63051 0.0201598 7.65232C0.00865295 7.67497 0 10.2054 0 13.5495C0 19.444 0.00178074 19.589 0.074041 19.589C0.0835616 19.589 0.0913242 19.6046 0.0913242 19.6237C0.0913242 19.669 0.331005 19.9087 0.37621 19.9087C0.39532 19.9087 0.410959 19.9164 0.410959 19.926C0.410959 19.997 0.585023 20 4.64612 20C8.70722 20 8.88128 19.997 8.88128 19.926C8.88128 19.9164 8.89692 19.9087 8.91603 19.9087C8.96123 19.9087 9.20091 19.669 9.20091 19.6237C9.20091 19.6046 9.21119 19.589 9.22374 19.589C9.2363 19.589 9.24658 19.5684 9.24658 19.5433C9.24658 19.5182 9.25685 19.4977 9.26941 19.4977C9.28457 19.4977 9.29224 17.5073 9.29224 13.5723C9.29224 9.63728 9.28457 7.64693 9.26941 7.64693C9.25685 7.64693 9.24658 7.63357 9.24658 7.61722C9.24658 7.57523 9.19288 7.46464 9.17237 7.46444C9.16295 7.46435 9.15495 7.45142 9.15457 7.43571C9.1542 7.42003 9.12594 7.3839 9.09178 7.35548C9.05763 7.32705 9.00413 7.28264 8.97292 7.25679C8.94169 7.23094 8.88776 7.20411 8.85306 7.19717C8.81836 7.19023 8.78995 7.17555 8.78995 7.16456C8.78995 7.15321 6.99881 7.14458 4.64612 7.14458C2.29342 7.14458 0.502283 7.15321 0.502283 7.16456ZM11.1929 14.2995C11.1521 14.3129 11.1187 14.332 11.1187 14.3419C11.1187 14.3519 11.1031 14.3601 11.084 14.3601C11.0388 14.3601 10.7991 14.5998 10.7991 14.645C10.7991 14.6641 10.7888 14.6797 10.7763 14.6797C10.7637 14.6797 10.7534 14.7003 10.7534 14.7254C10.7534 14.7505 10.7432 14.7711 10.7306 14.7711C10.7155 14.7711 10.7078 15.5741 10.7078 17.1344C10.7078 18.6947 10.7155 19.4977 10.7306 19.4977C10.7432 19.4977 10.7534 19.5182 10.7534 19.5433C10.7534 19.5684 10.7637 19.589 10.7763 19.589C10.7888 19.589 10.7991 19.6046 10.7991 19.6237C10.7991 19.669 11.0388 19.9087 11.084 19.9087C11.1031 19.9087 11.1187 19.9164 11.1187 19.926C11.1187 19.997 11.2928 20 15.3539 20C19.415 20 19.589 19.997 19.589 19.926C19.589 19.9164 19.6047 19.9087 19.6238 19.9087C19.669 19.9087 19.9087 19.669 19.9087 19.6237C19.9087 19.6046 19.9164 19.589 19.926 19.589C19.9939 19.589 20 19.3888 20 17.1344C20 14.8799 19.9939 14.6797 19.926 14.6797C19.9164 14.6797 19.9087 14.6641 19.9087 14.645C19.9087 14.5998 19.669 14.3601 19.6238 14.3601C19.6047 14.3601 19.589 14.3523 19.589 14.3428C19.589 14.2716 19.4181 14.2687 15.3371 14.2719C12.5253 14.2742 11.2442 14.2827 11.1929 14.2995Z" fill="#808080"/>
</svg>
