<svg width="15" height="20" viewBox="0 0 15 20" fill="none" xmlns="http://www.w3.org/2000/svg">
<path fill-rule="evenodd" clip-rule="evenodd" d="M1.71071 0.0446817C1.31098 0.103254 0.887192 0.331504 0.581263 0.652927C0.270148 0.979827 0.110059 1.30837 0.0462949 1.75063C-0.0117238 2.1531 -0.017049 18.8832 0.0407828 19.1831C0.157754 19.7901 0.840385 20.1622 1.40394 19.9262C1.49639 19.8875 2.67358 18.91 4.01987 17.7541C5.36622 16.5981 6.54121 15.6213 6.631 15.5834C6.83299 15.498 7.17316 15.4995 7.383 15.5866C7.47002 15.6227 8.6382 16.5942 9.97903 17.7454C11.3198 18.8967 12.4656 19.8648 12.5252 19.8969C12.9803 20.1423 13.6301 19.9315 13.8835 19.4563L13.9882 19.26L14.0018 10.7153C14.0107 5.04286 13.9991 2.04724 13.9672 1.80363C13.9009 1.29886 13.7139 0.923221 13.3609 0.585645C13.0277 0.267079 12.7022 0.106719 12.2583 0.0424343C11.8581 -0.0155294 2.10755 -0.0134693 1.71071 0.0446817Z" fill="#808080"/>
</svg>
