<svg width="20" height="20" viewBox="0 0 20 20" fill="none" xmlns="http://www.w3.org/2000/svg">
<path fill-rule="evenodd" clip-rule="evenodd" d="M18.9503 0.10331C18.7714 0.158739 18.4109 0.269846 18.1493 0.350188C17.4484 0.565449 5.49595 4.1491 5.232 4.22314C4.32123 4.47862 1.07258 5.47634 0.954176 5.53692C0.67285 5.6809 0.292541 6.09261 0.143892 6.41413C0.0191256 6.68397 0 6.78532 0 7.17562C0 7.55862 0.0198766 7.66827 0.133178 7.90975C0.300402 8.26618 0.600303 8.5944 0.915374 8.76569C1.06127 8.84503 2.69591 9.33659 4.99964 9.99388C7.11216 10.5966 8.85324 11.1024 8.86861 11.1177C8.88398 11.1331 9.39021 12.8705 9.99357 14.9786C10.5969 17.0866 11.1447 18.9182 11.2109 19.0487C11.3484 19.3198 11.691 19.6554 11.9736 19.7957C12.6869 20.1501 13.4866 20.0379 14.0686 19.5018C14.4403 19.1595 14.4949 19.0404 14.8688 17.7561C14.9184 17.586 17.6347 8.53497 18.5321 5.54978C18.6024 5.31591 18.7231 4.92195 18.8002 4.67433C19.2493 3.23243 20.0015 0.640588 20 0.540086C19.9959 0.270897 19.7032 -0.00454549 19.426 5.6888e-05C19.3434 0.00140759 19.1293 0.0478816 18.9503 0.10331Z" fill="#808080"/>
</svg>
